<?xml version="1.0" encoding="UTF-8"?>
<svg version="1.1" xmlns="http://www.w3.org/2000/svg" width="256" height="256">
<path d="M0 0 C2.80454733 1.78027787 3.49267869 2.72009424 4.6953125 5.7109375 C6.02051753 6.39361888 7.35343432 7.0616416 8.6953125 7.7109375 C11.10553593 14.94160778 9.19000401 19.98692525 6.19140625 26.765625 C3.38222021 32.29598081 0.04842087 37.40021717 -5.3046875 40.7109375 C-8.51171875 41.625 -8.51171875 41.625 -12.1171875 42.3359375 C-13.29925781 42.57570312 -14.48132813 42.81546875 -15.69921875 43.0625 C-25.87569358 44.89272191 -33.57704822 45.41375144 -43.3046875 41.9609375 C-44.43777344 41.58195312 -44.43777344 41.58195312 -45.59375 41.1953125 C-60.48427354 36.0782941 -60.48427354 36.0782941 -64.3046875 29.7109375 C-65.45597187 26.75049197 -66.42699802 23.76290318 -67.3046875 20.7109375 C-63.51958718 19.27748374 -61.40584973 20.18332627 -57.76171875 21.73046875 C-56.68728516 22.17583984 -55.61285156 22.62121094 -54.50585938 23.08007812 C-53.38759766 23.55638672 -52.26933594 24.03269531 -51.1171875 24.5234375 C-43.91148583 27.57054067 -37.05713665 30.44703873 -29.3046875 31.7109375 C-28.9746875 31.3809375 -28.6446875 31.0509375 -28.3046875 30.7109375 C-26.85696213 30.42696775 -25.39851843 30.19705996 -23.9375 29.9921875 C-23.05191406 29.86457031 -22.16632813 29.73695312 -21.25390625 29.60546875 C-20.32191406 29.47527344 -19.38992187 29.34507813 -18.4296875 29.2109375 C-16.59860699 28.95300287 -14.76786012 28.69268554 -12.9375 28.4296875 C-12.12168457 28.31560547 -11.30586914 28.20152344 -10.46533203 28.08398438 C-8.13200788 27.73682767 -8.13200788 27.73682767 -5.3046875 26.7109375 C-4.57144954 24.69585392 -4.57144954 24.69585392 -4.3046875 22.7109375 C-5.24570313 22.8553125 -6.18671875 22.9996875 -7.15625 23.1484375 C-8.40148437 23.3340625 -9.64671875 23.5196875 -10.9296875 23.7109375 C-12.15945312 23.8965625 -13.38921875 24.0821875 -14.65625 24.2734375 C-17.91995659 24.66480274 -21.02563148 24.7109375 -24.3046875 24.7109375 C-24.6346875 25.0409375 -24.9646875 25.3709375 -25.3046875 25.7109375 C-31.63117714 26.38542392 -37.06520757 25.25771805 -42.9921875 23.1484375 C-43.76385254 22.8810376 -44.53551758 22.6136377 -45.33056641 22.33813477 C-65.3468889 15.18944816 -65.3468889 15.18944816 -70.3046875 7.7109375 C-70.3671875 5.1484375 -70.3671875 5.1484375 -69.3046875 2.7109375 C-64.91451208 -1.62559016 -59.6087006 -3.33964522 -53.9296875 -5.4140625 C-53.00929688 -5.76082031 -52.08890625 -6.10757813 -51.140625 -6.46484375 C-31.09533998 -13.93887145 -18.48496083 -8.9687851 0 0 Z M-53.3046875 42.7109375 C-52.22832031 43.1440625 -51.15195313 43.5771875 -50.04296875 44.0234375 C-36.83096844 49.14168192 -26.24054835 49.83882611 -12.3046875 46.7109375 C-11.8096875 48.6909375 -11.8096875 48.6909375 -11.3046875 50.7109375 C-24.29481476 62.94308953 -24.29481476 62.94308953 -31.2421875 64.2734375 C-38.61929272 62.91845899 -43.63803839 57.69590231 -48.8671875 52.6484375 C-49.41648926 52.12991211 -49.96579102 51.61138672 -50.53173828 51.07714844 C-52.05859375 49.55078125 -52.05859375 49.55078125 -54.3046875 46.7109375 C-53.94506836 44.53344727 -53.94506836 44.53344727 -53.3046875 42.7109375 Z " fill="#FE4C06" transform="translate(158.3046875,87.2890625)"/>
<path d="M0 0 C3.72517419 1.00890134 7.03632191 2.01656789 10.5625 3.625 C18.98234655 6.86844283 29.25354286 5.20640788 38 4 C33.12756873 10.24670676 27.65712959 15.44762347 20 18 C20 17.34 20 16.68 20 16 C19.4225 15.87625 18.845 15.7525 18.25 15.625 C15.97664233 14.99351176 14.0746471 14.11141809 12 13 C12 12.34 12 11.68 12 11 C11.42765625 10.75378906 10.8553125 10.50757813 10.265625 10.25390625 C7.63481257 8.79788765 5.85191095 7.08222766 3.75 4.9375 C3.04359375 4.22464844 2.3371875 3.51179687 1.609375 2.77734375 C0 1 0 1 0 0 Z " fill="#FE2004" transform="translate(106,133)"/>
<path d="M0 0 C2.79223159 0.97758001 5.58379772 1.95698923 8.375 2.9375 C9.56609375 3.35418945 9.56609375 3.35418945 10.78125 3.77929688 C11.92207031 4.18051758 11.92207031 4.18051758 13.0859375 4.58984375 C13.7876709 4.83597412 14.4894043 5.08210449 15.21240234 5.33569336 C17 6 17 6 19 7 C26.72377566 7.50647709 33.54304394 5.93627298 41 4 C41.495 5.98 41.495 5.98 42 8 C36.3450595 13.42318064 31.24241364 17.91526826 24 21 C23.67 20.34 23.34 19.68 23 19 C23.804375 18.67 24.60875 18.34 25.4375 18 C30.30031274 15.60940861 34.07876363 11.66853447 38 8 C36.96875 8.165 35.9375 8.33 34.875 8.5 C23.03715212 9.87795055 13.90019989 9.06986042 3 4 C5.23193126 6.89665862 7.33499256 9.4717999 10.25 11.6875 C11.1575 12.450625 12.065 13.21375 13 14 C13 14.66 13 15.32 13 16 C15.65228812 17.07525194 18.28368454 18.09456151 21 19 C21 19.66 21 20.32 21 21 C14.89249521 19.62581142 11.39784085 16.1857001 7 12 C6.23300781 11.30777344 5.46601562 10.61554688 4.67578125 9.90234375 C3.93714844 9.21269531 3.19851562 8.52304688 2.4375 7.8125 C1.75558594 7.17957031 1.07367188 6.54664063 0.37109375 5.89453125 C-0.08136719 5.26933594 -0.53382812 4.64414063 -1 4 C-0.58569336 1.8815918 -0.58569336 1.8815918 0 0 Z " fill="#F97551" transform="translate(105,130)"/>
<path d="M0 0 C2.73907675 1.73871828 3.65450884 2.69392436 4.6953125 5.7109375 C3.88191406 5.28683594 3.06851563 4.86273438 2.23046875 4.42578125 C-20.19273226 -7.59791767 -20.19273226 -7.59791767 -44.72265625 -6.1328125 C-46.00076172 -5.71515625 -46.00076172 -5.71515625 -47.3046875 -5.2890625 C-47.98144531 -5.0725 -48.65820312 -4.8559375 -49.35546875 -4.6328125 C-54.75376852 -2.75514302 -59.72678141 -0.07731637 -64.765625 2.6015625 C-65.60351562 2.96765625 -66.44140625 3.33375 -67.3046875 3.7109375 C-67.9646875 3.3809375 -68.6246875 3.0509375 -69.3046875 2.7109375 C-64.77205304 -1.5539464 -59.66930465 -3.3175079 -53.9296875 -5.4140625 C-53.00929688 -5.76082031 -52.08890625 -6.10757813 -51.140625 -6.46484375 C-31.09533998 -13.93887145 -18.48496083 -8.9687851 0 0 Z " fill="#F67743" transform="translate(158.3046875,87.2890625)"/>
<path d="M0 0 C1.051875 -0.02126953 1.051875 -0.02126953 2.125 -0.04296875 C4 0.1875 4 0.1875 6 2.1875 C5.625 5.3125 5.625 5.3125 5 8.1875 C-3.83328365 11.43863912 -11.62293314 12.38285556 -21 12.1875 C-18.69559676 9.88309676 -17.92319541 9.82882972 -14.7890625 9.40625 C-13.53996094 9.22642578 -13.53996094 9.22642578 -12.265625 9.04296875 C-11.39421875 8.92566406 -10.5228125 8.80835937 -9.625 8.6875 C-7.90797616 8.45429228 -6.19177662 8.21491499 -4.4765625 7.96875 C-3.3330835 7.8150293 -3.3330835 7.8150293 -2.16650391 7.65820312 C0.14023501 7.15703199 1.94107321 6.32595852 4 5.1875 C4 4.5275 4 3.8675 4 3.1875 C0.7 3.1875 -2.6 3.1875 -6 3.1875 C-6 2.5275 -6 1.8675 -6 1.1875 C-3.77109005 0.07304502 -2.46944894 0.02269714 0 0 Z " fill="#FE8035" transform="translate(150,107.8125)"/>
<path d="M0 0 C3.65578616 0.51253826 6.89097619 1.63131269 10.30859375 2.99609375 C11.30310547 3.38990234 12.29761719 3.78371094 13.32226562 4.18945312 C14.35029297 4.60130859 15.37832031 5.01316406 16.4375 5.4375 C25.13814454 8.93899812 25.13814454 8.93899812 34 12 C24.15033603 15.15807612 10.82115841 6.04543321 2 2 C2 3.65 2 5.3 2 7 C-0.13324818 4.86675182 -0.53238345 3.8992226 -1 1 C-0.67 0.67 -0.34 0.34 0 0 Z " fill="#EF7A5D" transform="translate(92,107)"/>
<path d="M0 0 C18.96393443 5.68918033 18.96393443 5.68918033 22.34765625 11.19140625 C22.56292969 11.78824219 22.77820313 12.38507813 23 13 C22.10539062 12.54109375 21.21078125 12.0821875 20.2890625 11.609375 C13.30943643 8.05764125 6.35329652 4.72783581 -1 2 C-0.67 1.34 -0.34 0.68 0 0 Z " fill="#F67E39" transform="translate(140,80)"/>
<path d="M0 0 C0.66 0.33 1.32 0.66 2 1 C1.72827202 4.24563976 0.82877142 5.16860237 -1.546875 7.5078125 C-2.60652879 8.38997428 -3.67459217 9.26211324 -4.75 10.125 C-5.2759375 10.56714844 -5.801875 11.00929687 -6.34375 11.46484375 C-9.40725992 13.97479866 -12.23536648 15.75906525 -16 17 C-16.33 16.34 -16.66 15.68 -17 15 C-16.195625 14.67 -15.39125 14.34 -14.5625 14 C-9.69968726 11.60940861 -5.92123637 7.66853447 -2 4 C-2.33 3.01 -2.66 2.02 -3 1 C-2.01 0.67 -1.02 0.34 0 0 Z " fill="#FE754D" transform="translate(145,134)"/>
<path d="M0 0 C0.66 0.33 1.32 0.66 2 1 C-3.32869151 6.78335802 -8.28663072 8.19100286 -16 9 C-15.67 8.01 -15.34 7.02 -15 6 C-14.33613281 5.90203125 -13.67226562 5.8040625 -12.98828125 5.703125 C-7.62714274 4.79525337 -3.97963587 3.97963587 0 0 Z " fill="#FE7524" transform="translate(158,121)"/>
<path d="M0 0 C0 0.66 0 1.32 0 2 C-1.89564426 2.79211929 -3.79152371 3.58367576 -5.6875 4.375 C-6.74324219 4.81585938 -7.79898438 5.25671875 -8.88671875 5.7109375 C-11.58356657 6.82757462 -14.28716264 7.92291801 -17 9 C-12.88560246 4.06272295 -6.66144254 0 0 0 Z " fill="#F88B5D" transform="translate(106,82)"/>
<path d="M0 0 C3.45925163 1.2491742 6.14693203 2.67527795 9 5 C8.67 5.66 8.34 6.32 8 7 C5.03 5.35 2.06 3.7 -1 2 C-0.67 1.34 -0.34 0.68 0 0 Z " fill="#FA8425" transform="translate(154,86)"/>
<path d="M0 0 C0.66 0.33 1.32 0.66 2 1 C0.47793991 3.62901288 -0.84365964 5.84365964 -3 8 C-3.33 6.35 -3.66 4.7 -4 3 C-2.68 2.01 -1.36 1.02 0 0 Z " fill="#FA5937" transform="translate(92,89)"/>
</svg>
