<?xml version="1.0" encoding="UTF-8"?>
<svg version="1.1" xmlns="http://www.w3.org/2000/svg" width="512" height="512">
<path d="M0 0 C3.64401455 2.12567515 5.45171721 4.12803425 7 8 C7.31884766 10.93261719 7.31884766 10.93261719 7.4140625 14.296875 C7.45273437 15.50214844 7.49140625 16.70742188 7.53125 17.94921875 C7.57765625 19.83060547 7.57765625 19.83060547 7.625 21.75 C7.66367187 23.01972656 7.70234375 24.28945313 7.7421875 25.59765625 C7.83644222 28.7316257 7.92205166 31.86558949 8 35 C8.52956299 34.4652002 9.05912598 33.93040039 9.60473633 33.37939453 C12.00470186 30.95864666 14.40854746 28.54178829 16.8125 26.125 C18.06256836 24.86236328 18.06256836 24.86236328 19.33789062 23.57421875 C20.54155273 22.36572266 20.54155273 22.36572266 21.76953125 21.1328125 C22.87711792 20.01737061 22.87711792 20.01737061 24.00708008 18.87939453 C27.53158833 15.55565761 30.18456083 14.2778138 35 14 C40.08090852 15.57683368 43.42339875 17.25905371 46 22 C46.95468341 27.32457446 46.45192854 30.81002681 43.35498047 35.32493591 C40.70443545 38.6016125 37.38635571 41.16070486 34.171875 43.86328125 C15.11083872 59.1718969 15.11083872 59.1718969 5.7578125 80.58203125 C5.32839195 88.45589847 6.33423407 96.31335705 8 104 C8.48879639 103.50072998 8.97759277 103.00145996 9.48120117 102.48706055 C11.71130284 100.21523524 13.94928759 97.95133382 16.1875 95.6875 C16.95642578 94.90181641 17.72535156 94.11613281 18.51757812 93.30664062 C19.26845703 92.54931641 20.01933594 91.79199219 20.79296875 91.01171875 C21.82200317 89.96697388 21.82200317 89.96697388 22.87182617 88.90112305 C27.03146739 85.18526596 30.29076459 83.42462721 36.00390625 83.640625 C39.31541016 84.23682531 41.45757239 85.88131033 44 88 C46.42351872 91.63527809 46.75925783 93.83802878 46.58007812 98.14404297 C45.07739412 105.5423584 37.60367116 110.69799776 31.71154785 114.85961914 C21.41765726 122.18451268 10.29486976 130.62581577 7.15472412 143.45281982 C4.2662584 161.98616518 5.59592733 181.39566227 7 200 C7.62081955 200.13154984 8.2416391 200.26309967 8.88127136 200.39863586 C9.69413101 200.57428574 10.50699066 200.74993561 11.34448242 200.9309082 C12.15092697 201.10370804 12.95737152 201.27650787 13.78825378 201.45454407 C16.9351313 202.23062 19.41521235 203.65514695 22.17578125 205.29296875 C24.57387389 206.22242222 25.57850693 205.81860397 28 205 C42.60940048 195.70170929 62.58323401 179.39438798 68.12628174 162.58441162 C71.03334684 148.95001948 70.11371805 134.53012898 68.50318909 120.76408386 C67.88686657 115.24325605 67.73057277 111.80359489 71 107 C73.8314462 103.95881705 76.86621988 103.30829651 80.97265625 102.93359375 C84.2386637 103.0405728 86.32766247 104.19772585 89 106 C92.90245345 110.17158817 93.1185989 114.3207693 93.31640625 119.859375 C93.35830078 120.97441406 93.40019531 122.08945313 93.44335938 123.23828125 C93.48267578 124.39714844 93.52199219 125.55601563 93.5625 126.75 C93.60568359 127.92433594 93.64886719 129.09867188 93.69335938 130.30859375 C93.79934794 133.20561451 93.90141638 136.10271935 94 139 C102.95850888 133.7309952 112.01791188 126.91579126 116 117 C119.20111188 102.61685225 117.94548728 86.80526567 117.0692749 72.19804382 C116.78657232 66.6362184 116.71269643 62.77215419 120 58 C122.6508268 55.53851797 124.54383628 54.10529579 128.21484375 53.83984375 C133.19530624 54.17960908 136.57513199 55.15999647 140 59 C141.63196799 63.0925625 142.2783128 66.66544734 142.4140625 71.0546875 C142.45273437 72.16328125 142.49140625 73.271875 142.53125 74.4140625 C142.5621875 75.55617188 142.593125 76.69828125 142.625 77.875 C142.66367187 79.0403125 142.70234375 80.205625 142.7421875 81.40625 C142.83610319 84.27067864 142.92177983 87.13510692 143 90 C143.48879639 89.49549316 143.97759277 88.99098633 144.48120117 88.47119141 C146.70866468 86.18121649 148.94787588 83.90308046 151.1875 81.625 C151.95642578 80.8309375 152.72535156 80.036875 153.51757812 79.21875 C154.26845703 78.45820312 155.01933594 77.69765625 155.79296875 76.9140625 C156.4789917 76.2123291 157.16501465 75.5105957 157.87182617 74.78759766 C161.01573622 72.1468142 163.89525678 71.14103105 167.9375 70.625 C171.95422287 71.11684362 173.91865639 72.3979765 177 75 C179.40729787 78.41680989 179.97171535 80.57573023 180.25 84.75 C179.18214207 90.84375447 174.21472458 94.82376605 170 99 C169.14277344 99.87011719 168.28554688 100.74023438 167.40234375 101.63671875 C165.28421927 103.77498388 163.14742548 105.89128769 161 108 C161.7206665 108.01458252 162.44133301 108.02916504 163.18383789 108.04418945 C166.47724087 108.11906959 169.76967436 108.21559841 173.0625 108.3125 C174.19623047 108.33505859 175.32996094 108.35761719 176.49804688 108.38085938 C183.47393922 108.60457604 189.46265748 108.81639173 194.875 113.6875 C196.50878894 117.04584394 197.12126553 120.29783483 197 124 C195.49927609 128.18622987 193.87568011 130.76854781 190 133 C186.92508918 133.98316992 184.33207206 134.04845259 181.12158203 133.85620117 C150.83542956 130.74075791 150.83542956 130.74075791 124.0116272 141.42591858 C119.32175921 146.06393299 115.37377696 151.34002709 112 157 C112.7206665 157.01458252 113.44133301 157.02916504 114.18383789 157.04418945 C117.47724087 157.11906959 120.76967436 157.21559841 124.0625 157.3125 C125.7630957 157.34633789 125.7630957 157.34633789 127.49804688 157.38085938 C134.47393922 157.60457604 140.46265748 157.81639173 145.875 162.6875 C147.50878894 166.04584394 148.12126553 169.29783483 148 173 C146.49927609 177.18622987 144.87568011 179.76854781 141 182 C137.93115926 183.00146391 135.592091 182.9920163 132.40722656 182.57055664 C102.43895328 178.98936539 102.43895328 178.98936539 75.56924438 190.24998474 C70.65055618 194.49269381 66.10732745 198.99275646 61.6875 203.75 C60.81830933 204.68369415 59.94911865 205.61738831 59.05358887 206.57937622 C55.14752508 210.86634982 51.34723637 215.23972735 47.7331543 219.77636719 C46.8991938 220.82108185 46.8991938 220.82108185 46.04838562 221.88690186 C44.67136365 224.66239069 45.10121339 226.09134807 46 229 C46.93066661 230.97766654 47.9819397 232.84326168 49.0625 234.7421875 C50.31713703 237.76377169 50.57531957 240.76838865 51 244 C60.21349684 244.95826243 69.42944468 245.54730741 78.6875 245.8125 C79.70938541 245.8419722 79.70938541 245.8419722 80.75191498 245.87203979 C98.34587166 246.28480964 112.27754369 244.75862551 125.81236267 232.27754211 C133.47991304 224.63925984 140.41658076 216.28169172 146.75857544 207.51818848 C148.43946446 205.46256107 149.57907106 205.04544543 152.20703125 204.76171875 C159.24770268 204.56115989 159.24770268 204.56115989 163 206.75 C165.95518341 210.07458134 166.86967403 211.84878727 167.375 216.3125 C166.51985362 224.72143939 160.54174823 229.8452908 154.75 235.4375 C154.00492187 236.16904297 153.25984375 236.90058594 152.4921875 237.65429688 C150.66813928 239.44326725 148.83744183 241.22480646 147 243 C157.60653182 245.46516532 169.63872943 247.27654115 180 243 C193.53479924 234.50800182 204.31436139 220.72972351 214.49459839 208.60720825 C216.54278506 206.42050771 218.28429397 205.11702594 221.26953125 204.62890625 C225.75791286 204.51169813 228.98845813 204.43422283 232.5625 207.375 C236.16999093 211.25999023 236.65716869 214.00871356 236.58984375 219.22265625 C235.40501721 224.8015415 230.99476605 228.19355864 227 232 C225.98096468 233.02134831 224.9654287 234.04619804 223.953125 235.07421875 C221.32432221 237.73932747 218.66936428 240.37554092 216 243 C217.17973389 243.01401855 217.17973389 243.01401855 218.38330078 243.02832031 C221.96449238 243.08217282 225.54439883 243.16579363 229.125 243.25 C230.3625 243.26417969 231.6 243.27835938 232.875 243.29296875 C244.36094968 243.60173084 244.36094968 243.60173084 249 248 C251.8288298 252.2432447 251.65268001 256.01734529 251 261 C248.87432485 264.64401455 246.87196575 266.45171721 243 268 C240.06738281 268.31884766 240.06738281 268.31884766 236.703125 268.4140625 C235.49785156 268.45273437 234.29257812 268.49140625 233.05078125 268.53125 C231.16939453 268.57765625 231.16939453 268.57765625 229.25 268.625 C227.98027344 268.66367187 226.71054687 268.70234375 225.40234375 268.7421875 C222.2683743 268.83644222 219.13441051 268.92205166 216 269 C216.5347998 269.52956299 217.06959961 270.05912598 217.62060547 270.60473633 C220.04135334 273.00470186 222.45821171 275.40854746 224.875 277.8125 C225.71675781 278.64587891 226.55851562 279.47925781 227.42578125 280.33789062 C228.63427734 281.54155273 228.63427734 281.54155273 229.8671875 282.76953125 C230.61081543 283.50792236 231.35444336 284.24631348 232.12060547 285.00708008 C235.44434239 288.53158833 236.7221862 291.18456083 237 296 C235.42342212 301.08008429 233.76574323 304.4650302 229 307 C225.40619766 307.90804258 222.60721884 307.83993322 219 307 C213.33789115 303.17358572 208.81980886 297.88269271 204.44714355 292.68615723 C190.58923482 275.1382988 190.58923482 275.1382988 170.765625 267.109375 C162.79328174 266.72162261 154.84057085 267.59550736 147 269 C147.49927002 269.48879639 147.99854004 269.97759277 148.51293945 270.48120117 C150.78476476 272.71130284 153.04866618 274.94928759 155.3125 277.1875 C156.09818359 277.95642578 156.88386719 278.72535156 157.69335938 279.51757812 C158.45068359 280.26845703 159.20800781 281.01933594 159.98828125 281.79296875 C160.68477783 282.4789917 161.38127441 283.16501465 162.09887695 283.87182617 C165.81473404 288.03146739 167.57537279 291.29076459 167.359375 297.00390625 C166.76317469 300.31541016 165.11868967 302.45757239 163 305 C159.36472191 307.42351872 157.16197122 307.75925783 152.85595703 307.58007812 C145.4576416 306.07739412 140.30200224 298.60367116 136.14038086 292.71154785 C128.81548732 282.41765726 120.37418423 271.29486976 107.54718018 268.15472412 C89.01383482 265.2662584 69.60433773 266.59592733 51 268 C50.86845016 268.62081955 50.73690033 269.2416391 50.60136414 269.88127136 C50.33788933 271.10056084 50.33788933 271.10056084 50.0690918 272.34448242 C49.80989204 273.55414925 49.80989204 273.55414925 49.54545593 274.78825378 C48.76938 277.9351313 47.34485305 280.41521235 45.70703125 283.17578125 C44.77757778 285.57387389 45.18139603 286.57850693 46 289 C55.29829071 303.60940048 71.60561202 323.58323401 88.41558838 329.12628174 C102.04998052 332.03334684 116.46987102 331.11371805 130.23591614 329.50318909 C135.75674395 328.88686657 139.19640511 328.73057277 144 332 C147.04118295 334.8314462 147.69170349 337.86621988 148.06640625 341.97265625 C147.9594272 345.2386637 146.80227415 347.32766247 145 350 C140.82841183 353.90245345 136.6792307 354.1185989 131.140625 354.31640625 C130.02558594 354.35830078 128.91054688 354.40019531 127.76171875 354.44335938 C126.60285156 354.48267578 125.44398438 354.52199219 124.25 354.5625 C123.07566406 354.60568359 121.90132813 354.64886719 120.69140625 354.69335938 C117.79438549 354.79934794 114.89728065 354.90141638 112 355 C117.2690048 363.95850888 124.08420874 373.01791188 134 377 C148.38314775 380.20111188 164.19473433 378.94548728 178.80195618 378.0692749 C184.37952022 377.78577234 188.18862358 377.74918902 193 381 C196.04118295 383.8314462 196.69170349 386.86621988 197.06640625 390.97265625 C196.9594272 394.2386637 195.80227415 396.32766247 194 399 C189.82841183 402.90245345 185.6792307 403.1185989 180.140625 403.31640625 C179.02558594 403.35830078 177.91054688 403.40019531 176.76171875 403.44335938 C175.60285156 403.48267578 174.44398438 403.52199219 173.25 403.5625 C172.07566406 403.60568359 170.90132813 403.64886719 169.69140625 403.69335938 C166.79438549 403.79934794 163.89728065 403.90141638 161 404 C161.46897705 404.4532666 161.9379541 404.9065332 162.42114258 405.37353516 C164.55959854 407.44928989 166.68605194 409.53694868 168.8125 411.625 C169.55048828 412.33785156 170.28847656 413.05070312 171.04882812 413.78515625 C179.62669429 422.2465808 179.62669429 422.2465808 180.21484375 428.16015625 C179.53984467 432.79007955 178.52210832 435.67356437 175 439 C171.45624913 441.16562553 168.19542455 441.39590538 164.09375 440.71484375 C159.87088324 439.2730814 157.08154602 436.11392653 154 433 C153.01770394 432.02916126 152.03457936 431.05916035 151.05078125 430.08984375 C148.3463196 427.41343221 145.66829801 424.71244265 143 422 C142.98541748 422.7206665 142.97083496 423.44133301 142.95581055 424.18383789 C142.88093041 427.47724087 142.78440159 430.76967436 142.6875 434.0625 C142.66494141 435.19623047 142.64238281 436.32996094 142.61914062 437.49804688 C142.39542396 444.47393922 142.18360827 450.46265748 137.3125 455.875 C133.95415606 457.50878894 130.70216517 458.12126553 127 458 C122.79387455 456.49214371 120.2883896 454.85412986 118 451 C116.98583466 447.95750397 116.9593961 446.29526129 117.14379883 443.14331055 C120.33043064 412.29670118 120.33043064 412.29670118 109.57408142 384.93843079 C104.94465154 380.25934727 99.66774081 376.33351832 94 373 C93.98541748 373.7206665 93.97083496 374.44133301 93.95581055 375.18383789 C93.88093041 378.47724087 93.78440159 381.76967436 93.6875 385.0625 C93.66494141 386.19623047 93.64238281 387.32996094 93.61914062 388.49804688 C93.39542396 395.47393922 93.18360827 401.46265748 88.3125 406.875 C84.95415606 408.50878894 81.70216517 409.12126553 78 409 C73.79387455 407.49214371 71.2883896 405.85412986 69 402 C67.96487056 398.89461167 68.02067808 397.59561799 68.42944336 394.42895508 C72.06947578 363.91069648 72.06947578 363.91069648 60.75001526 336.50511169 C56.51157682 331.58107455 52.01306367 327.04031525 47.25 322.625 C46.31630585 321.75767242 45.38261169 320.89034485 44.42062378 319.99673462 C40.13519798 316.10173686 35.7624153 312.31489529 31.22363281 308.71728516 C30.52715637 308.1643277 29.83067993 307.61137024 29.11309814 307.04165649 C26.33825353 305.67379059 24.90500155 306.10356196 22 307 C20.02233346 307.93066661 18.15673832 308.9819397 16.2578125 310.0625 C13.23622831 311.31713703 10.23161135 311.57531957 7 312 C6.07316868 321.23536044 5.50291747 330.47291907 5.25 339.75 C5.23135517 340.43226025 5.21271034 341.11452049 5.19350052 341.81745529 C4.81164729 359.13640174 6.10767181 373.12846753 18.39108276 386.48098755 C25.78022891 393.8993126 33.88627907 400.58977841 42.39952087 406.67628479 C44.71826587 408.59405927 45.90047716 410.31722701 46.3359375 413.3046875 C46.40080195 417.57276853 46.43985326 420.24596584 44.25 424 C40.3693507 427.44946604 37.48573863 428.63037775 32.1171875 428.4140625 C22.75532923 426.58314557 14.38729831 414.54877495 8 408 C5.53566724 418.60294967 3.71962795 430.64296912 8 441 C15.58242353 453.05079444 27.53946514 462.74748798 38.28518677 471.90101624 C39.0056015 472.51609543 39.72601624 473.13117462 40.46826172 473.76489258 C41.10335663 474.29601151 41.73845154 474.82713043 42.39279175 475.37434387 C45.32576202 478.3409794 46.31472305 481.25836118 46.4375 485.375 C46.35027521 488.68409058 45.92953461 490.77053261 43.9375 493.4375 C40.54015425 496.40114203 38.45825294 497.38506856 34 498 C26.28996504 497.08837323 22.21485733 491.78203659 17.0625 486.375 C16.18787109 485.4778125 15.31324219 484.580625 14.41210938 483.65625 C12.2629732 481.44839425 10.12640437 479.22972048 8 477 C7.98598145 478.17973389 7.98598145 478.17973389 7.97167969 479.38330078 C7.91782718 482.96449238 7.83420637 486.54439883 7.75 490.125 C7.73582031 491.3625 7.72164063 492.6 7.70703125 493.875 C7.39826916 505.36094968 7.39826916 505.36094968 3 510 C-1.2432447 512.8288298 -5.01734529 512.65268001 -10 512 C-13.64401455 509.87432485 -15.45171721 507.87196575 -17 504 C-17.31884766 501.06738281 -17.31884766 501.06738281 -17.4140625 497.703125 C-17.45273438 496.49785156 -17.49140625 495.29257812 -17.53125 494.05078125 C-17.57765625 492.16939453 -17.57765625 492.16939453 -17.625 490.25 C-17.66367188 488.98027344 -17.70234375 487.71054687 -17.7421875 486.40234375 C-17.83644222 483.2683743 -17.92205166 480.13441051 -18 477 C-18.52956299 477.5347998 -19.05912598 478.06959961 -19.60473633 478.62060547 C-22.00470186 481.04135334 -24.40854746 483.45821171 -26.8125 485.875 C-27.64587891 486.71675781 -28.47925781 487.55851562 -29.33789062 488.42578125 C-30.14033203 489.23144531 -30.94277344 490.03710938 -31.76953125 490.8671875 C-32.50792236 491.61081543 -33.24631348 492.35444336 -34.00708008 493.12060547 C-37.53158833 496.44434239 -40.18456083 497.7221862 -45 498 C-50.08008429 496.42342212 -53.4650302 494.76574323 -56 490 C-56.90804258 486.40619766 -56.83993322 483.60721884 -56 480 C-52.17358572 474.33789115 -46.88269271 469.81980886 -41.68615723 465.44714355 C-24.1382988 451.58923482 -24.1382988 451.58923482 -16.109375 431.765625 C-15.72162261 423.79328174 -16.59550736 415.84057085 -18 408 C-18.48879639 408.49927002 -18.97759277 408.99854004 -19.48120117 409.51293945 C-21.71130284 411.78476476 -23.94928759 414.04866618 -26.1875 416.3125 C-26.95642578 417.09818359 -27.72535156 417.88386719 -28.51757812 418.69335938 C-29.26845703 419.45068359 -30.01933594 420.20800781 -30.79296875 420.98828125 C-31.4789917 421.68477783 -32.16501465 422.38127441 -32.87182617 423.09887695 C-37.03146739 426.81473404 -40.29076459 428.57537279 -46.00390625 428.359375 C-49.31541016 427.76317469 -51.45757239 426.11868967 -54 424 C-56.42351872 420.36472191 -56.75925783 418.16197122 -56.58007812 413.85595703 C-55.07739412 406.4576416 -47.60367116 401.30200224 -41.71154785 397.14038086 C-31.41765726 389.81548732 -20.29486976 381.37418423 -17.15472412 368.54718018 C-14.2662584 350.01383482 -15.59592733 330.60433773 -17 312 C-17.62081955 311.86845016 -18.2416391 311.73690033 -18.88127136 311.60136414 C-20.10056084 311.33788933 -20.10056084 311.33788933 -21.34448242 311.0690918 C-22.15092697 310.89629196 -22.95737152 310.72349213 -23.78825378 310.54545593 C-26.9351313 309.76938 -29.41521235 308.34485305 -32.17578125 306.70703125 C-34.57387389 305.77757778 -35.57850693 306.18139603 -38 307 C-52.60940048 316.29829071 -72.58323401 332.60561202 -78.12628174 349.41558838 C-81.03334684 363.04998052 -80.11371805 377.46987102 -78.50318909 391.23591614 C-77.88686657 396.75674395 -77.73057277 400.19640511 -81 405 C-83.8314462 408.04118295 -86.86621988 408.69170349 -90.97265625 409.06640625 C-94.2386637 408.9594272 -96.32766247 407.80227415 -99 406 C-102.90245345 401.82841183 -103.1185989 397.6792307 -103.31640625 392.140625 C-103.37924805 390.46806641 -103.37924805 390.46806641 -103.44335938 388.76171875 C-103.48267578 387.60285156 -103.52199219 386.44398438 -103.5625 385.25 C-103.62727539 383.48849609 -103.62727539 383.48849609 -103.69335938 381.69140625 C-103.79934794 378.79438549 -103.90141638 375.89728065 -104 373 C-112.90602286 378.30867111 -121.98321788 385.1267693 -126 395 C-129.18488579 409.05942991 -127.94869347 424.55488169 -127.0692749 438.84111023 C-126.72124657 445.54922049 -126.98697372 450.65219302 -131.6875 455.875 C-135.04584394 457.50878894 -138.29783483 458.12126553 -142 458 C-146.18622987 456.49927609 -148.76854781 454.87568011 -151 451 C-152.03341992 447.71453464 -152.193852 444.57214392 -152.31640625 441.140625 C-152.35830078 440.02558594 -152.40019531 438.91054688 -152.44335938 437.76171875 C-152.48267578 436.60285156 -152.52199219 435.44398438 -152.5625 434.25 C-152.62727539 432.48849609 -152.62727539 432.48849609 -152.69335938 430.69140625 C-152.79934794 427.79438549 -152.90141638 424.89728065 -153 422 C-153.4532666 422.46897705 -153.9065332 422.9379541 -154.37353516 423.42114258 C-156.44928989 425.55959854 -158.53694868 427.68605194 -160.625 429.8125 C-161.69427734 430.91948242 -161.69427734 430.91948242 -162.78515625 432.04882812 C-171.2465808 440.62669429 -171.2465808 440.62669429 -177.16015625 441.21484375 C-181.79007955 440.53984467 -184.67356437 439.52210832 -188 436 C-190.16562553 432.45624913 -190.39590538 429.19542455 -189.71484375 425.09375 C-188.2730814 420.87088324 -185.11392653 418.08154602 -182 415 C-181.02916126 414.01770394 -180.05916035 413.03457936 -179.08984375 412.05078125 C-176.41343221 409.3463196 -173.71244265 406.66829801 -171 404 C-171.7206665 403.98541748 -172.44133301 403.97083496 -173.18383789 403.95581055 C-176.47724087 403.88093041 -179.76967436 403.78440159 -183.0625 403.6875 C-184.19623047 403.66494141 -185.32996094 403.64238281 -186.49804688 403.61914062 C-193.4909721 403.39487772 -199.37906586 403.13814292 -204.875 398.375 C-206.63446559 394.66057265 -207.22803198 391.10457567 -207 387 C-204.66726545 381.96129338 -202.14646164 379.90733853 -197 378 C-193.18086005 377.7713632 -189.40916353 378.03285164 -185.59375 378.26171875 C-158.14358632 380.72801103 -158.14358632 380.72801103 -133.94790649 370.58039856 C-129.26409258 365.94913776 -125.33596803 360.67190587 -122 355 C-122.7206665 354.98541748 -123.44133301 354.97083496 -124.18383789 354.95581055 C-127.47724087 354.88093041 -130.76967436 354.78440159 -134.0625 354.6875 C-135.19623047 354.66494141 -136.32996094 354.64238281 -137.49804688 354.61914062 C-144.47393922 354.39542396 -150.46265748 354.18360827 -155.875 349.3125 C-157.50878894 345.95415606 -158.12126553 342.70216517 -158 339 C-156.49214371 334.79387455 -154.85412986 332.2883896 -151 330 C-147.89461167 328.96487056 -146.59561799 329.02067808 -143.42895508 329.42944336 C-112.91069648 333.06947578 -112.91069648 333.06947578 -85.50511169 321.75001526 C-80.58107455 317.51157682 -76.04031525 313.01306367 -71.625 308.25 C-70.75767242 307.31630585 -69.89034485 306.38261169 -68.99673462 305.42062378 C-65.10173686 301.13519798 -61.31489529 296.7624153 -57.71728516 292.22363281 C-57.1643277 291.52715637 -56.61137024 290.83067993 -56.04165649 290.11309814 C-54.67379059 287.33825353 -55.10356196 285.90500155 -56 283 C-56.93066661 281.02233346 -57.9819397 279.15673832 -59.0625 277.2578125 C-60.31713703 274.23622831 -60.57531957 271.23161135 -61 268 C-70.23536044 267.07316868 -79.47291907 266.50291747 -88.75 266.25 C-89.43226025 266.23135517 -90.11452049 266.21271034 -90.81745529 266.19350052 C-108.13640174 265.81164729 -122.12846753 267.10767181 -135.48098755 279.39108276 C-142.8993126 286.78022891 -149.58977841 294.88627907 -155.67628479 303.39952087 C-157.59405927 305.71826587 -159.31722701 306.90047716 -162.3046875 307.3359375 C-166.57276853 307.40080195 -169.24596584 307.43985326 -173 305.25 C-176.44946604 301.3693507 -177.63037775 298.48573863 -177.4140625 293.1171875 C-175.58314557 283.75532923 -163.54877495 275.38729831 -157 269 C-167.60294967 266.53566724 -179.64296912 264.71962795 -190 269 C-202.05079444 276.58242353 -211.74748798 288.53946514 -220.90101624 299.28518677 C-221.51609543 300.0056015 -222.13117462 300.72601624 -222.76489258 301.46826172 C-223.29601151 302.10335663 -223.82713043 302.73845154 -224.37434387 303.39279175 C-227.3409794 306.32576202 -230.25836118 307.31472305 -234.375 307.4375 C-237.86620505 307.37412829 -239.79093433 306.84329291 -242.5 304.625 C-246.18235365 300.75852866 -246.65757231 298.02254482 -246.58984375 292.77734375 C-245.40501721 287.1984585 -240.99476605 283.80644136 -237 280 C-235.98096468 278.97865169 -234.9654287 277.95380196 -233.953125 276.92578125 C-231.32432221 274.26067253 -228.66936428 271.62445908 -226 269 C-226.78648926 268.9906543 -227.57297852 268.98130859 -228.38330078 268.97167969 C-231.96449238 268.91782718 -235.54439883 268.83420637 -239.125 268.75 C-240.3625 268.73582031 -241.6 268.72164063 -242.875 268.70703125 C-254.36094968 268.39826916 -254.36094968 268.39826916 -259 264 C-261.8288298 259.7567553 -261.65268001 255.98265471 -261 251 C-258.87432485 247.35598545 -256.87196575 245.54828279 -253 244 C-250.06738281 243.68115234 -250.06738281 243.68115234 -246.703125 243.5859375 C-245.49785156 243.54726562 -244.29257813 243.50859375 -243.05078125 243.46875 C-241.16939453 243.42234375 -241.16939453 243.42234375 -239.25 243.375 C-237.98027344 243.33632812 -236.71054688 243.29765625 -235.40234375 243.2578125 C-232.2683743 243.16355778 -229.13441051 243.07794834 -226 243 C-226.5347998 242.47043701 -227.06959961 241.94087402 -227.62060547 241.39526367 C-230.04135334 238.99529814 -232.45821171 236.59145254 -234.875 234.1875 C-236.13763672 232.93743164 -236.13763672 232.93743164 -237.42578125 231.66210938 C-238.23144531 230.85966797 -239.03710938 230.05722656 -239.8671875 229.23046875 C-240.61081543 228.49207764 -241.35444336 227.75368652 -242.12060547 226.99291992 C-245.44434239 223.46841167 -246.7221862 220.81543917 -247 216 C-245.42342212 210.91991571 -243.76574323 207.5349698 -239 205 C-235.40619766 204.09195742 -232.60721884 204.16006678 -229 205 C-223.33789115 208.82641428 -218.81980886 214.11730729 -214.44714355 219.31384277 C-200.58923482 236.8617012 -200.58923482 236.8617012 -180.765625 244.890625 C-172.79328174 245.27837739 -164.84057085 244.40449264 -157 243 C-157.49927002 242.51120361 -157.99854004 242.02240723 -158.51293945 241.51879883 C-160.78476476 239.28869716 -163.04866618 237.05071241 -165.3125 234.8125 C-166.09818359 234.04357422 -166.88386719 233.27464844 -167.69335938 232.48242188 C-168.45068359 231.73154297 -169.20800781 230.98066406 -169.98828125 230.20703125 C-170.68477783 229.5210083 -171.38127441 228.83498535 -172.09887695 228.12817383 C-175.81473404 223.96853261 -177.57537279 220.70923541 -177.359375 214.99609375 C-176.76317469 211.68458984 -175.11868967 209.54242761 -173 207 C-169.36472191 204.57648128 -167.16197122 204.24074217 -162.85595703 204.41992188 C-155.4576416 205.92260588 -150.30200224 213.39632884 -146.14038086 219.28845215 C-138.81548732 229.58234274 -130.37418423 240.70513024 -117.54718018 243.84527588 C-99.01383482 246.7337416 -79.60433773 245.40407267 -61 244 C-60.86845016 243.37918045 -60.73690033 242.7583609 -60.60136414 242.11872864 C-60.42571426 241.30586899 -60.25006439 240.49300934 -60.0690918 239.65551758 C-59.89629196 238.84907303 -59.72349213 238.04262848 -59.54545593 237.21174622 C-58.76938 234.0648687 -57.34485305 231.58478765 -55.70703125 228.82421875 C-54.77757778 226.42612611 -55.18139603 225.42149307 -56 223 C-65.29829071 208.39059952 -81.60561202 188.41676599 -98.41558838 182.87371826 C-112.04998052 179.96665316 -126.46987102 180.88628195 -140.23591614 182.49681091 C-145.75674395 183.11313343 -149.19640511 183.26942723 -154 180 C-157.04118295 177.1685538 -157.69170349 174.13378012 -158.06640625 170.02734375 C-157.9594272 166.7613363 -156.80227415 164.67233753 -155 162 C-150.82841183 158.09754655 -146.6792307 157.8814011 -141.140625 157.68359375 C-139.46806641 157.62075195 -139.46806641 157.62075195 -137.76171875 157.55664062 C-136.60285156 157.51732422 -135.44398438 157.47800781 -134.25 157.4375 C-133.07566406 157.39431641 -131.90132812 157.35113281 -130.69140625 157.30664062 C-127.79438549 157.20065206 -124.89728065 157.09858362 -122 157 C-127.2690048 148.04149112 -134.08420874 138.98208812 -144 135 C-158.38314775 131.79888812 -174.19473433 133.05451272 -188.80195618 133.9307251 C-194.3637816 134.21342768 -198.22784581 134.28730357 -203 131 C-205.46148203 128.3491732 -206.89470421 126.45616372 -207.16015625 122.78515625 C-206.82039092 117.80469376 -205.84000353 114.42486801 -202 111 C-197.9074375 109.36803201 -194.33455266 108.7216872 -189.9453125 108.5859375 C-188.83671875 108.54726562 -187.728125 108.50859375 -186.5859375 108.46875 C-185.44382812 108.4378125 -184.30171875 108.406875 -183.125 108.375 C-181.9596875 108.33632812 -180.794375 108.29765625 -179.59375 108.2578125 C-176.72932136 108.16389681 -173.86489308 108.07822017 -171 108 C-171.50450684 107.51120361 -172.00901367 107.02240723 -172.52880859 106.51879883 C-174.81878351 104.29133532 -177.09691954 102.05212412 -179.375 99.8125 C-180.1690625 99.04357422 -180.963125 98.27464844 -181.78125 97.48242188 C-182.54179687 96.73154297 -183.30234375 95.98066406 -184.0859375 95.20703125 C-185.1385376 94.17799683 -185.1385376 94.17799683 -186.21240234 93.12817383 C-188.56918246 90.32237592 -189.90797284 87.61967795 -190.1171875 83.9375 C-189.52978938 79.23831501 -188.56806156 76.36983592 -185 73 C-181.45624913 70.83437447 -178.19542455 70.60409462 -174.09375 71.28515625 C-169.87088324 72.7269186 -167.08154602 75.88607347 -164 79 C-163.01770394 79.97083874 -162.03457936 80.94083965 -161.05078125 81.91015625 C-158.3463196 84.58656779 -155.66829801 87.28755735 -153 90 C-152.98541748 89.2793335 -152.97083496 88.55866699 -152.95581055 87.81616211 C-152.88093041 84.52275913 -152.78440159 81.23032564 -152.6875 77.9375 C-152.66494141 76.80376953 -152.64238281 75.67003906 -152.61914062 74.50195312 C-152.39487772 67.5090279 -152.13814292 61.62093414 -147.375 56.125 C-143.66057265 54.36553441 -140.10457567 53.77196802 -136 54 C-130.96129338 56.33273455 -128.90733853 58.85353836 -127 64 C-126.7713632 67.81913995 -127.03285164 71.59083647 -127.26171875 75.40625 C-129.72801103 102.85641368 -129.72801103 102.85641368 -119.58039856 127.05209351 C-114.94913776 131.73590742 -109.67190587 135.66403197 -104 139 C-103.98541748 138.2793335 -103.97083496 137.55866699 -103.95581055 136.81616211 C-103.88093041 133.52275913 -103.78440159 130.23032564 -103.6875 126.9375 C-103.65366211 125.2369043 -103.65366211 125.2369043 -103.61914062 123.50195312 C-103.39542396 116.52606078 -103.18360827 110.53734252 -98.3125 105.125 C-94.95415606 103.49121106 -91.70216517 102.87873447 -88 103 C-83.79387455 104.50785629 -81.2883896 106.14587014 -79 110 C-77.96487056 113.10538833 -78.02067808 114.40438201 -78.42944336 117.57104492 C-82.06947578 148.08930352 -82.06947578 148.08930352 -70.75001526 175.49488831 C-66.51157682 180.41892545 -62.01306367 184.95968475 -57.25 189.375 C-56.31630585 190.24232758 -55.38261169 191.10965515 -54.42062378 192.00326538 C-50.13519798 195.89826314 -45.7624153 199.68510471 -41.22363281 203.28271484 C-40.52715637 203.8356723 -39.83067993 204.38862976 -39.11309814 204.95834351 C-36.33825353 206.32620941 -34.90500155 205.89643804 -32 205 C-30.02233346 204.06933339 -28.15673832 203.0180603 -26.2578125 201.9375 C-23.23622831 200.68286297 -20.23161135 200.42468043 -17 200 C-16.07316868 190.76463956 -15.50291747 181.52708093 -15.25 172.25 C-15.23135517 171.56773975 -15.21271034 170.88547951 -15.19350052 170.18254471 C-14.81164729 152.86359826 -16.10767181 138.87153247 -28.39108276 125.51901245 C-35.78022891 118.1006874 -43.88627907 111.41022159 -52.39952087 105.32371521 C-54.71826587 103.40594073 -55.90047716 101.68277299 -56.3359375 98.6953125 C-56.40080195 94.42723147 -56.43985326 91.75403416 -54.25 88 C-50.3693507 84.55053396 -47.48573863 83.36962225 -42.1171875 83.5859375 C-32.75532923 85.41685443 -24.38729831 97.45122505 -18 104 C-15.53483468 93.39346818 -13.72345885 81.36127057 -18 71 C-26.49199818 57.46520076 -40.27027649 46.68563861 -52.39279175 36.50540161 C-54.57949229 34.45721494 -55.88297406 32.71570603 -56.37109375 29.73046875 C-56.57268548 22.01069119 -56.57268548 22.01069119 -53.9375 18.5 C-50.55777657 15.62363964 -48.38758798 14.61580182 -44 14 C-33.68585497 15.53614926 -25.01957662 27.87512973 -18 35 C-17.98598145 33.82026611 -17.98598145 33.82026611 -17.97167969 32.61669922 C-17.91782718 29.03550762 -17.83420637 25.45560117 -17.75 21.875 C-17.73582031 20.6375 -17.72164062 19.4 -17.70703125 18.125 C-17.39826916 6.63905032 -17.39826916 6.63905032 -13 2 C-8.7567553 -0.8288298 -4.98265471 -0.65268001 0 0 Z M-29.796875 233.921875 C-36.44817615 242.41710122 -39.09767837 251.23770517 -38 262 C-35.51095111 271.07442489 -31.20868981 278.87615322 -23.0234375 283.78515625 C-14.394516 288.22558666 -6.87749188 290.66929415 2.81640625 288.31640625 C13.07850396 284.8766767 19.88404626 279.59440546 25 270 C28.81856149 261.78649037 29.21262809 253.9709947 26.375 245.375 C22.15203417 234.94265583 15.42429301 228.7006975 5.1875 224.125 C-7.43454372 219.89245839 -20.89288816 224.39848038 -29.796875 233.921875 Z " fill="#DEE4E9" transform="translate(261,0)"/>
</svg>
